<svg width="1050" height="1087" viewBox="0 0 1050 1087" fill="none" xmlns="http://www.w3.org/2000/svg">
<g clip-path="url(#clip0_647_625)">
<path d="M1031.7 422.96C1031.7 519.41 958.24 602.27 853.25 638.28L817.11 825.61C813.54 844.12 794.88 855.61 776.75 850.41C730.41 837.13 674.59 827.24 612.98 821.92C595.01 820.37 579.26 833.9 578.12 851.9L573.13 930.68C572.36 942.82 558.07 948.89 548.8 941L408.24 821.47C356.88 825.67 309.42 833.05 267.98 842.91C250.58 847.05 233.12 836.35 229.09 818.93L186.48 634.68C86.8305 596.96 17.9805 516.33 17.9805 422.95C17.9805 318.84 103.52 230.6 221.92 199.97C231.87 197.4 239.99 190.3 243.85 180.78C282.09 86.36 393.78 18 525.62 18C657.46 18 769.46 86.54 807.54 181.18C811.36 190.68 819.441 197.77 829.341 200.38C946.921 231.39 1031.71 319.32 1031.71 422.96H1031.7Z" stroke="#231815" stroke-width="36" stroke-linejoin="round"/>
<path d="M344.051 459.12H344.041C334.293 459.12 326.391 467.022 326.391 476.77V565.76C326.391 575.508 334.293 583.41 344.041 583.41H344.051C353.798 583.41 361.701 575.508 361.701 565.76V476.77C361.701 467.022 353.798 459.12 344.051 459.12Z" fill="#717071"/>
<path d="M416.039 376.68H416.029C406.281 376.68 398.379 384.582 398.379 394.33V660.06C398.379 669.808 406.281 677.71 416.029 677.71H416.039C425.787 677.71 433.689 669.808 433.689 660.06V394.33C433.689 384.582 425.787 376.68 416.039 376.68Z" fill="#717071"/>
<path d="M488.039 420.64H488.029C478.281 420.64 470.379 428.542 470.379 438.29V604.25C470.379 613.998 478.281 621.9 488.029 621.9H488.039C497.787 621.9 505.689 613.998 505.689 604.25V438.29C505.689 428.542 497.787 420.64 488.039 420.64Z" fill="#717071"/>
<path d="M560.031 376.68H560.021C550.273 376.68 542.371 384.582 542.371 394.33V660.06C542.371 669.808 550.273 677.71 560.021 677.71H560.031C569.779 677.71 577.681 669.808 577.681 660.06V394.33C577.681 384.582 569.779 376.68 560.031 376.68Z" fill="#717071"/>
<path d="M632.031 420.64H632.021C622.273 420.64 614.371 428.542 614.371 438.29V604.25C614.371 613.998 622.273 621.9 632.021 621.9H632.031C641.779 621.9 649.681 613.998 649.681 604.25V438.29C649.681 428.542 641.779 420.64 632.031 420.64Z" fill="#717071"/>
<path d="M704.019 459.12H704.009C694.262 459.12 686.359 467.022 686.359 476.77V565.76C686.359 575.508 694.262 583.41 704.009 583.41H704.019C713.767 583.41 721.669 575.508 721.669 565.76V476.77C721.669 467.022 713.767 459.12 704.019 459.12Z" fill="#717071"/>
<path d="M366.421 992.15C393.825 992.15 416.041 969.934 416.041 942.53C416.041 915.126 393.825 892.91 366.421 892.91C339.016 892.91 316.801 915.126 316.801 942.53C316.801 969.934 339.016 992.15 366.421 992.15Z" fill="#231815"/>
<path d="M690.479 999.23C717.884 999.23 740.099 977.014 740.099 949.61C740.099 922.206 717.884 899.99 690.479 899.99C663.075 899.99 640.859 922.206 640.859 949.61C640.859 977.014 663.075 999.23 690.479 999.23Z" fill="#231815"/>
<path d="M638.8 1039.51C567.85 1078.52 481.87 1078.52 410.91 1039.51" stroke="#231815" stroke-width="36" stroke-miterlimit="10" stroke-linecap="round"/>
</g>
<defs>
<clipPath id="clip0_647_625">
<rect width="1049.7" height="1086.76" fill="white"/>
</clipPath>
</defs>
</svg>
